<mxfile host="app.diagrams.net" agent="Mozilla/5.0 (Windows NT 10.0; Win64; x64) AppleWebKit/537.36 (KHTML, like Gecko) Chrome/138.0.0.0 Safari/537.36" version="27.2.0">
  <diagram name="Page-1" id="_0ErwDTtWnVxuPkX2eag">
    <mxGraphModel dx="1585" dy="798" grid="1" gridSize="10" guides="1" tooltips="1" connect="1" arrows="1" fold="1" page="1" pageScale="1" pageWidth="850" pageHeight="1100" math="0" shadow="0">
      <root>
        <mxCell id="0" />
        <mxCell id="1" parent="0" />
        <mxCell id="FyT8MrMmyI5fMnRuhmEn-1" value="Activity tamba data kuisioner" style="swimlane;childLayout=stackLayout;resizeParent=1;resizeParentMax=0;startSize=20;html=1;" vertex="1" parent="1">
          <mxGeometry x="330" y="100" width="610" height="710" as="geometry" />
        </mxCell>
        <mxCell id="FyT8MrMmyI5fMnRuhmEn-2" value="Operator" style="swimlane;startSize=20;html=1;" vertex="1" parent="FyT8MrMmyI5fMnRuhmEn-1">
          <mxGeometry y="20" width="280" height="690" as="geometry" />
        </mxCell>
        <mxCell id="FyT8MrMmyI5fMnRuhmEn-3" value="" style="ellipse;html=1;shape=startState;fillColor=#000000;strokeColor=#ff0000;" vertex="1" parent="FyT8MrMmyI5fMnRuhmEn-2">
          <mxGeometry x="128.99999999999955" y="43" width="30" height="30" as="geometry" />
        </mxCell>
        <mxCell id="FyT8MrMmyI5fMnRuhmEn-4" value="" style="edgeStyle=orthogonalEdgeStyle;html=1;verticalAlign=bottom;endArrow=open;endSize=8;strokeColor=#ff0000;rounded=0;" edge="1" parent="FyT8MrMmyI5fMnRuhmEn-2">
          <mxGeometry relative="1" as="geometry">
            <mxPoint x="143.99999999999955" y="100" as="targetPoint" />
            <mxPoint x="144" y="70" as="sourcePoint" />
          </mxGeometry>
        </mxCell>
        <mxCell id="FyT8MrMmyI5fMnRuhmEn-5" value="kil tombol tambah data kuisioner" style="rounded=1;whiteSpace=wrap;html=1;arcSize=40;fontColor=#000000;fillColor=#ffffc0;strokeColor=#ff0000;" vertex="1" parent="FyT8MrMmyI5fMnRuhmEn-2">
          <mxGeometry x="83.99999999999955" y="158" width="120" height="40" as="geometry" />
        </mxCell>
        <mxCell id="FyT8MrMmyI5fMnRuhmEn-6" value="form dibuka" style="rounded=1;whiteSpace=wrap;html=1;arcSize=40;fontColor=#000000;fillColor=#ffffc0;strokeColor=#ff0000;" vertex="1" parent="FyT8MrMmyI5fMnRuhmEn-2">
          <mxGeometry x="84" y="238" width="120" height="40" as="geometry" />
        </mxCell>
        <mxCell id="FyT8MrMmyI5fMnRuhmEn-7" value="" style="edgeStyle=orthogonalEdgeStyle;html=1;verticalAlign=bottom;endArrow=open;endSize=8;strokeColor=#ff0000;rounded=0;entryX=0.5;entryY=0;entryDx=0;entryDy=0;" edge="1" parent="FyT8MrMmyI5fMnRuhmEn-2" source="FyT8MrMmyI5fMnRuhmEn-6" target="FyT8MrMmyI5fMnRuhmEn-9">
          <mxGeometry relative="1" as="geometry">
            <mxPoint x="144" y="328" as="targetPoint" />
          </mxGeometry>
        </mxCell>
        <mxCell id="FyT8MrMmyI5fMnRuhmEn-8" style="edgeStyle=orthogonalEdgeStyle;rounded=0;orthogonalLoop=1;jettySize=auto;html=1;exitX=0.5;exitY=1;exitDx=0;exitDy=0;entryX=0.5;entryY=0;entryDx=0;entryDy=0;strokeColor=light-dark(#ff0000, #ededed);" edge="1" parent="FyT8MrMmyI5fMnRuhmEn-2" source="FyT8MrMmyI5fMnRuhmEn-9" target="FyT8MrMmyI5fMnRuhmEn-10">
          <mxGeometry relative="1" as="geometry" />
        </mxCell>
        <mxCell id="FyT8MrMmyI5fMnRuhmEn-9" value="isi form" style="rounded=1;whiteSpace=wrap;html=1;arcSize=40;fontColor=#000000;fillColor=#ffffc0;strokeColor=#ff0000;" vertex="1" parent="FyT8MrMmyI5fMnRuhmEn-2">
          <mxGeometry x="84" y="318" width="120" height="40" as="geometry" />
        </mxCell>
        <mxCell id="FyT8MrMmyI5fMnRuhmEn-10" value="klik simpan" style="rounded=1;whiteSpace=wrap;html=1;arcSize=40;fontColor=#000000;fillColor=#ffffc0;strokeColor=#ff0000;" vertex="1" parent="FyT8MrMmyI5fMnRuhmEn-2">
          <mxGeometry x="84" y="398" width="120" height="40" as="geometry" />
        </mxCell>
        <mxCell id="FyT8MrMmyI5fMnRuhmEn-11" value="" style="ellipse;html=1;shape=endState;fillColor=#000000;strokeColor=#ff0000;" vertex="1" parent="FyT8MrMmyI5fMnRuhmEn-2">
          <mxGeometry x="128.99999999999955" y="648" width="30" height="30" as="geometry" />
        </mxCell>
        <mxCell id="FyT8MrMmyI5fMnRuhmEn-12" value="tampilkan notifikasi" style="rounded=1;whiteSpace=wrap;html=1;arcSize=40;fontColor=#000000;fillColor=#ffffc0;strokeColor=#ff0000;" vertex="1" parent="FyT8MrMmyI5fMnRuhmEn-2">
          <mxGeometry x="84" y="573" width="120" height="40" as="geometry" />
        </mxCell>
        <mxCell id="FyT8MrMmyI5fMnRuhmEn-13" value="" style="edgeStyle=orthogonalEdgeStyle;html=1;verticalAlign=bottom;endArrow=open;endSize=8;strokeColor=#ff0000;rounded=0;" edge="1" parent="FyT8MrMmyI5fMnRuhmEn-2" source="FyT8MrMmyI5fMnRuhmEn-12">
          <mxGeometry relative="1" as="geometry">
            <mxPoint x="144" y="648" as="targetPoint" />
          </mxGeometry>
        </mxCell>
        <mxCell id="FyT8MrMmyI5fMnRuhmEn-14" style="edgeStyle=orthogonalEdgeStyle;rounded=0;orthogonalLoop=1;jettySize=auto;html=1;exitX=0.5;exitY=1;exitDx=0;exitDy=0;entryX=0.5;entryY=0;entryDx=0;entryDy=0;strokeColor=#FF0000;" edge="1" parent="FyT8MrMmyI5fMnRuhmEn-2" source="FyT8MrMmyI5fMnRuhmEn-15" target="FyT8MrMmyI5fMnRuhmEn-5">
          <mxGeometry relative="1" as="geometry" />
        </mxCell>
        <mxCell id="FyT8MrMmyI5fMnRuhmEn-15" value="masuk halaman kusioner" style="rounded=1;whiteSpace=wrap;html=1;arcSize=40;fontColor=#000000;fillColor=#ffffc0;strokeColor=#ff0000;" vertex="1" parent="FyT8MrMmyI5fMnRuhmEn-2">
          <mxGeometry x="84" y="90" width="120" height="40" as="geometry" />
        </mxCell>
        <mxCell id="FyT8MrMmyI5fMnRuhmEn-16" style="edgeStyle=orthogonalEdgeStyle;rounded=0;orthogonalLoop=1;jettySize=auto;html=1;exitX=1;exitY=0.5;exitDx=0;exitDy=0;entryX=0;entryY=0.5;entryDx=0;entryDy=0;strokeColor=#FF0000;" edge="1" parent="FyT8MrMmyI5fMnRuhmEn-1" source="FyT8MrMmyI5fMnRuhmEn-5" target="FyT8MrMmyI5fMnRuhmEn-19">
          <mxGeometry relative="1" as="geometry" />
        </mxCell>
        <mxCell id="FyT8MrMmyI5fMnRuhmEn-17" value="" style="edgeStyle=orthogonalEdgeStyle;html=1;verticalAlign=bottom;endArrow=open;endSize=8;strokeColor=#ff0000;rounded=0;entryX=0;entryY=0.5;entryDx=0;entryDy=0;" edge="1" parent="FyT8MrMmyI5fMnRuhmEn-1" source="FyT8MrMmyI5fMnRuhmEn-10" target="FyT8MrMmyI5fMnRuhmEn-21">
          <mxGeometry relative="1" as="geometry">
            <mxPoint x="235" y="518" as="targetPoint" />
          </mxGeometry>
        </mxCell>
        <mxCell id="FyT8MrMmyI5fMnRuhmEn-18" value="SIstem" style="swimlane;startSize=20;html=1;" vertex="1" parent="FyT8MrMmyI5fMnRuhmEn-1">
          <mxGeometry x="280" y="20" width="330" height="690" as="geometry" />
        </mxCell>
        <mxCell id="FyT8MrMmyI5fMnRuhmEn-19" value="kirim form tambah data&amp;nbsp;" style="rounded=1;whiteSpace=wrap;html=1;arcSize=40;fontColor=#000000;fillColor=#ffffc0;strokeColor=#ff0000;" vertex="1" parent="FyT8MrMmyI5fMnRuhmEn-18">
          <mxGeometry x="120" y="158" width="120" height="40" as="geometry" />
        </mxCell>
        <mxCell id="FyT8MrMmyI5fMnRuhmEn-20" style="edgeStyle=orthogonalEdgeStyle;rounded=0;orthogonalLoop=1;jettySize=auto;html=1;exitX=0.5;exitY=1;exitDx=0;exitDy=0;entryX=0.5;entryY=0;entryDx=0;entryDy=0;strokeColor=light-dark(#ff0000, #ededed);" edge="1" parent="FyT8MrMmyI5fMnRuhmEn-18" source="FyT8MrMmyI5fMnRuhmEn-21" target="FyT8MrMmyI5fMnRuhmEn-26">
          <mxGeometry relative="1" as="geometry" />
        </mxCell>
        <mxCell id="FyT8MrMmyI5fMnRuhmEn-21" value="validasi data" style="rounded=1;whiteSpace=wrap;html=1;arcSize=40;fontColor=#000000;fillColor=#ffffc0;strokeColor=#ff0000;" vertex="1" parent="FyT8MrMmyI5fMnRuhmEn-18">
          <mxGeometry x="100" y="298" width="120" height="40" as="geometry" />
        </mxCell>
        <mxCell id="FyT8MrMmyI5fMnRuhmEn-22" style="edgeStyle=orthogonalEdgeStyle;rounded=0;orthogonalLoop=1;jettySize=auto;html=1;exitX=0;exitY=0.5;exitDx=0;exitDy=0;entryX=0.5;entryY=0;entryDx=0;entryDy=0;strokeColor=#FF0000;" edge="1" parent="FyT8MrMmyI5fMnRuhmEn-18" source="FyT8MrMmyI5fMnRuhmEn-26" target="FyT8MrMmyI5fMnRuhmEn-31">
          <mxGeometry relative="1" as="geometry" />
        </mxCell>
        <mxCell id="FyT8MrMmyI5fMnRuhmEn-23" value="ya" style="edgeLabel;html=1;align=center;verticalAlign=middle;resizable=0;points=[];" vertex="1" connectable="0" parent="FyT8MrMmyI5fMnRuhmEn-22">
          <mxGeometry x="-0.3" y="2" relative="1" as="geometry">
            <mxPoint as="offset" />
          </mxGeometry>
        </mxCell>
        <mxCell id="FyT8MrMmyI5fMnRuhmEn-24" style="edgeStyle=orthogonalEdgeStyle;rounded=0;orthogonalLoop=1;jettySize=auto;html=1;exitX=1;exitY=0.5;exitDx=0;exitDy=0;entryX=0.5;entryY=0;entryDx=0;entryDy=0;strokeColor=light-dark(#ff0000, #ededed);" edge="1" parent="FyT8MrMmyI5fMnRuhmEn-18" source="FyT8MrMmyI5fMnRuhmEn-26" target="FyT8MrMmyI5fMnRuhmEn-28">
          <mxGeometry relative="1" as="geometry" />
        </mxCell>
        <mxCell id="FyT8MrMmyI5fMnRuhmEn-25" value="tidak" style="edgeLabel;html=1;align=center;verticalAlign=middle;resizable=0;points=[];" vertex="1" connectable="0" parent="FyT8MrMmyI5fMnRuhmEn-24">
          <mxGeometry x="-0.5" y="-1" relative="1" as="geometry">
            <mxPoint as="offset" />
          </mxGeometry>
        </mxCell>
        <mxCell id="FyT8MrMmyI5fMnRuhmEn-26" value="valid" style="rhombus;whiteSpace=wrap;html=1;fontColor=#000000;fillColor=#ffffc0;strokeColor=#ff0000;" vertex="1" parent="FyT8MrMmyI5fMnRuhmEn-18">
          <mxGeometry x="120" y="388" width="80" height="40" as="geometry" />
        </mxCell>
        <mxCell id="FyT8MrMmyI5fMnRuhmEn-27" value="" style="edgeStyle=elbowEdgeStyle;html=1;verticalAlign=bottom;endArrow=open;endSize=8;strokeColor=#ff0000;rounded=0;" edge="1" parent="FyT8MrMmyI5fMnRuhmEn-18">
          <mxGeometry relative="1" as="geometry">
            <mxPoint x="-76" y="258" as="targetPoint" />
            <mxPoint x="169" y="198" as="sourcePoint" />
            <Array as="points">
              <mxPoint x="180" y="258" />
            </Array>
          </mxGeometry>
        </mxCell>
        <mxCell id="FyT8MrMmyI5fMnRuhmEn-28" value="kirim pesan eror ke user&amp;nbsp;" style="rounded=1;whiteSpace=wrap;html=1;arcSize=40;fontColor=#000000;fillColor=#ffffc0;strokeColor=#ff0000;" vertex="1" parent="FyT8MrMmyI5fMnRuhmEn-18">
          <mxGeometry x="190" y="458" width="120" height="40" as="geometry" />
        </mxCell>
        <mxCell id="FyT8MrMmyI5fMnRuhmEn-29" value="" style="edgeStyle=orthogonalEdgeStyle;html=1;verticalAlign=bottom;endArrow=open;endSize=8;strokeColor=#ff0000;rounded=0;entryX=1;entryY=0.5;entryDx=0;entryDy=0;" edge="1" parent="FyT8MrMmyI5fMnRuhmEn-18" source="FyT8MrMmyI5fMnRuhmEn-28" target="FyT8MrMmyI5fMnRuhmEn-34">
          <mxGeometry relative="1" as="geometry">
            <mxPoint x="250" y="558" as="targetPoint" />
          </mxGeometry>
        </mxCell>
        <mxCell id="FyT8MrMmyI5fMnRuhmEn-30" style="edgeStyle=orthogonalEdgeStyle;rounded=0;orthogonalLoop=1;jettySize=auto;html=1;exitX=0.5;exitY=1;exitDx=0;exitDy=0;entryX=0.5;entryY=0;entryDx=0;entryDy=0;strokeColor=#FF0000;" edge="1" parent="FyT8MrMmyI5fMnRuhmEn-18" source="FyT8MrMmyI5fMnRuhmEn-31" target="FyT8MrMmyI5fMnRuhmEn-33">
          <mxGeometry relative="1" as="geometry" />
        </mxCell>
        <mxCell id="FyT8MrMmyI5fMnRuhmEn-31" value="simpan data" style="rounded=1;whiteSpace=wrap;html=1;arcSize=40;fontColor=#000000;fillColor=#ffffc0;strokeColor=#ff0000;" vertex="1" parent="FyT8MrMmyI5fMnRuhmEn-18">
          <mxGeometry x="10" y="458" width="120" height="40" as="geometry" />
        </mxCell>
        <mxCell id="FyT8MrMmyI5fMnRuhmEn-32" style="edgeStyle=orthogonalEdgeStyle;rounded=0;orthogonalLoop=1;jettySize=auto;html=1;exitX=1;exitY=0.5;exitDx=0;exitDy=0;entryX=0.5;entryY=0;entryDx=0;entryDy=0;strokeColor=#FF0000;" edge="1" parent="FyT8MrMmyI5fMnRuhmEn-18" source="FyT8MrMmyI5fMnRuhmEn-33" target="FyT8MrMmyI5fMnRuhmEn-34">
          <mxGeometry relative="1" as="geometry" />
        </mxCell>
        <mxCell id="FyT8MrMmyI5fMnRuhmEn-33" value="kirim pesan sukses ke user" style="rounded=1;whiteSpace=wrap;html=1;arcSize=40;fontColor=#000000;fillColor=#ffffc0;strokeColor=#ff0000;" vertex="1" parent="FyT8MrMmyI5fMnRuhmEn-18">
          <mxGeometry x="10" y="528" width="120" height="40" as="geometry" />
        </mxCell>
        <mxCell id="FyT8MrMmyI5fMnRuhmEn-34" value="" style="rhombus;whiteSpace=wrap;html=1;fontColor=#000000;fillColor=#ffffc0;strokeColor=#ff0000;" vertex="1" parent="FyT8MrMmyI5fMnRuhmEn-18">
          <mxGeometry x="160" y="578" width="40" height="30" as="geometry" />
        </mxCell>
        <mxCell id="FyT8MrMmyI5fMnRuhmEn-35" style="edgeStyle=orthogonalEdgeStyle;rounded=0;orthogonalLoop=1;jettySize=auto;html=1;exitX=0;exitY=0.5;exitDx=0;exitDy=0;entryX=1;entryY=0.5;entryDx=0;entryDy=0;strokeColor=#FF0000;" edge="1" parent="FyT8MrMmyI5fMnRuhmEn-1" source="FyT8MrMmyI5fMnRuhmEn-34" target="FyT8MrMmyI5fMnRuhmEn-12">
          <mxGeometry relative="1" as="geometry" />
        </mxCell>
      </root>
    </mxGraphModel>
  </diagram>
</mxfile>
